<svg width="210" height="126" viewBox="0 0 210 126" fill="none" xmlns="http://www.w3.org/2000/svg">
<g clip-path="url(#clip0_1_1000)">
<path opacity="0.4" d="M49.9472 269.365C123.946 269.365 183.934 209.377 183.934 135.378C183.934 61.3797 123.946 1.39185 49.9472 1.39185C-24.0515 1.39185 -84.0393 61.3797 -84.0393 135.378C-84.0393 209.377 -24.0515 269.365 49.9472 269.365Z" stroke="#FFFAFF" stroke-width="0.905316"/>
<path opacity="0.4" d="M49.9472 295.129C123.946 295.129 183.934 235.141 183.934 161.142C183.934 87.1433 123.946 27.1555 49.9472 27.1555C-24.0515 27.1555 -84.0393 87.1433 -84.0393 161.142C-84.0393 235.141 -24.0515 295.129 49.9472 295.129Z" stroke="#FFFAFF" stroke-width="0.905316"/>
<path opacity="0.4" d="M49.9472 320.264C123.946 320.264 183.934 260.277 183.934 186.278C183.934 112.279 123.946 52.2913 49.9472 52.2913C-24.0515 52.2913 -84.0393 112.279 -84.0393 186.278C-84.0393 260.277 -24.0515 320.264 49.9472 320.264Z" stroke="#FFFAFF" stroke-width="0.905316"/>
</g>
<defs>
<clipPath id="clip0_1_1000">
<rect width="269.206" height="320" fill="white" transform="translate(-84.6031 0.828125)"/>
</clipPath>
</defs>
</svg>
