<svg width="202" height="225" viewBox="0 0 202 225" fill="none" xmlns="http://www.w3.org/2000/svg">
<g clip-path="url(#clip0_1_1005)">
<path opacity="0.4" d="M231.765 160.076C324.124 160.076 398.996 85.204 398.996 -7.15535C398.996 -99.5147 324.124 -174.387 231.765 -174.387C139.405 -174.387 64.5333 -99.5147 64.5333 -7.15535C64.5333 85.204 139.405 160.076 231.765 160.076Z" stroke="#FFFAFF" stroke-width="1.12995"/>
<path opacity="0.4" d="M196.471 192.233C288.83 192.233 363.702 117.361 363.702 25.0015C363.702 -67.3578 288.83 -142.23 196.471 -142.23C104.111 -142.23 29.2392 -67.3578 29.2392 25.0015C29.2392 117.361 104.111 192.233 196.471 192.233Z" stroke="#FFFAFF" stroke-width="1.12995"/>
<path opacity="0.4" d="M168.235 223.605C260.595 223.605 335.467 148.733 335.467 56.3741C335.467 -35.9853 260.595 -110.857 168.235 -110.857C75.876 -110.857 1.00392 -35.9853 1.00392 56.3741C1.00392 148.733 75.876 223.605 168.235 223.605Z" stroke="#FFFAFF" stroke-width="1.12995"/>
</g>
<defs>
<clipPath id="clip0_1_1005">
<rect width="400" height="400" fill="white" transform="translate(0 -175.391)"/>
</clipPath>
</defs>
</svg>
